<svg xmlns="http://www.w3.org/2000/svg" version="1.1" xmlns:xlink="http://www.w3.org/1999/xlink" xmlns:svgjs="http://svgjs.dev/svgjs" width="100%" height="100%" viewBox="0 0 1000 600"><rect width="1000" height="600" x="0" y="0" fill="#00214d"/><g><circle r="166.66666666666666" cx="240.76105753580728" cy="251.82881417222873" fill="#ff0000" transform="matrix(1.986021281363626,0,0,1.986021281363626,21.843379627378496,-200.137377493288)"/><path d="M51.941347348482516 255.05794499075864Q51.941347348482516 234.44768742586507 61.23561881167022 217.96509724794606Q70.52989027485793 201.4825070700271 86.59128990308564 192.18823560683938Q102.68076890129277 182.89396414365166 122.28016914692726 182.89396414365166L122.28016914692726 182.89396414365166Q145.33333190003032 182.89396414365166 162.51790632743476 194.0133946555016Q179.70248075483923 205.1328251673516 187.59278371905597 225.5465271423892L187.59278371905597 225.5465271423892L165.55047828521202 225.5465271423892Q159.68188995951346 212.79849317173296 148.67477692758118 205.94712689675475Q137.63958452566948 199.06768125179707 122.28016914692726 199.06768125179707L122.28016914692726 199.06768125179707Q107.53849990773224 199.06768125179707 95.80132325633508 205.94712689675475Q84.06414660493792 212.79849317173296 77.4093359198156 225.43420966247152Q70.72644586471387 238.06992615321013 70.72644586471387 255.05794499075864L70.72644586471387 255.05794499075864Q70.72644586471387 271.84940823845125 77.4093359198156 284.4851247291898Q84.06414660493792 297.1208412199284 95.80132325633508 304.00028686488605Q107.53849990773224 310.8516531398643 122.28016914692726 310.8516531398643L122.28016914692726 310.8516531398643Q137.63958452566948 310.8516531398643 148.67477692758118 304.0845249748243Q159.68188995951346 297.3173968097843 165.55047828521202 284.5693628391281L165.55047828521202 284.5693628391281L187.59278371905597 284.5693628391281Q179.70248075483923 304.7865092243098 162.51790632743476 315.82170162622145Q145.33333190003032 326.82881465815376 122.28016914692726 326.82881465815376L122.28016914692726 326.82881465815376Q102.68076890129277 326.82881465815376 86.59128990308564 317.6468606748837Q70.52989027485793 308.43682732163427 61.23561881167022 292.06655462363295Q51.941347348482516 275.69628192563164 51.941347348482516 255.05794499075864L51.941347348482516 255.05794499075864ZM209.63508915289995 310.8516531398643Q235.299633314089 290.24139557497074 249.84474696342804 276.9879329446849Q264.41793998274653 263.76254968437854 274.4141956954197 249.30167414497777Q284.4385307780724 234.84079860557694 284.4385307780724 220.88535172580566L284.4385307780724 220.88535172580566Q284.4385307780724 207.74420657543754 278.06451379274415 200.1627766809944Q271.6904968074161 192.58134678655125 257.53849433778885 192.58134678655125L257.53849433778885 192.58134678655125Q243.77960304787354 192.58134678655125 236.1981731534304 201.17363400025346Q228.6167432589872 209.76592121395572 228.02707648941944 224.14255864341828L228.02707648941944 224.14255864341828L210.22475592246775 224.14255864341828Q211.0390576518709 201.4825070700271 223.98364721238312 189.15566364906215Q236.9282367728953 176.82882022809713 257.34193874793294 176.82882022809713L257.34193874793294 176.82882022809713Q278.1487519026824 176.82882022809713 290.39135721370917 188.341361919659Q302.63396252473586 199.88198298120022 302.63396252473586 220.09912936638193L302.63396252473586 220.09912936638193Q302.63396252473586 236.8625132440951 292.60962744208325 252.72735728246687Q282.6133717294101 268.62028069081805 269.8653377587538 280.6382510420094Q257.14538315807704 292.6562213932008 237.32134795260717 308.6333829114902L237.32134795260717 308.6333829114902L306.8739473916281 308.6333829114902L306.8739473916281 323.99279829023243L209.63508915289995 323.99279829023243L209.63508915289995 310.8516531398643ZM401.69797981212633 253.03623035224047Q409.3636478165077 254.2436432613555 415.7376648018358 259.2979298576509Q422.11168178716406 264.35221645394637 425.84623799442664 271.84940823845125Q429.58079420168946 279.3185206529767 429.58079420168946 287.8265697567407L429.58079420168946 287.8265697567407Q429.58079420168946 298.52480971889935 424.1333964256822 307.11709693260156Q418.65791927969536 315.7093841463038 408.2685523873104 320.67943263266096Q397.85110612494594 325.62140174903874 383.69910365531877 325.62140174903874L383.69910365531877 325.62140174903874L331.1345230538463 325.62140174903874L331.1345230538463 184.71912319231393L381.67738901680053 184.71912319231393Q396.02594707628367 184.71912319231393 406.1345202688746 189.46453671883575Q416.24309346146543 194.20995024535756 421.2973800577608 202.29680879943027Q426.35166665405626 210.38366735350291 426.35166665405626 220.4922405460938L426.35166665405626 220.4922405460938Q426.35166665405626 233.01563955691466 419.5845384890163 241.21481559090506Q412.8174103239763 249.4139916248954 401.69797981212633 253.03623035224047L401.69797981212633 253.03623035224047ZM349.5265103903658 199.88198298120022L349.5265103903658 245.567117937715L380.46997610768557 245.567117937715Q393.38648629821824 245.567117937715 400.46248753303183 239.50197402216048Q407.53848876784554 233.436830106606 407.53848876784554 222.71051077446788L407.53848876784554 222.71051077446788Q407.53848876784554 212.01227081230923 400.46248753303183 205.94712689675475Q393.38648629821824 199.88198298120022 380.0487855579942 199.88198298120022L380.0487855579942 199.88198298120022L349.5265103903658 199.88198298120022ZM382.07050019651234 310.45854196015244Q395.8293914864277 310.45854196015244 403.4950594908092 304.00028686488605Q411.18880686516997 297.51395239964023 411.18880686516997 286.0014107080785L411.18880686516997 286.0014107080785Q411.18880686516997 274.2642340566813 403.10194831109726 267.4971058916413Q395.01508975702467 260.7299777266013 381.48083342694457 260.7299777266013L381.48083342694457 260.7299777266013L349.5265103903658 260.7299777266013L349.5265103903658 310.45854196015244L382.07050019651234 310.45854196015244Z " fill="#ffe8f5" transform="matrix(1.986021281363626,0,0,1.986021281363626,21.843379627378496,-200.137377493288)"/><path d="MNaN 251.82881932976545 " fill="#8000ff" transform="matrix(1.986021281363626,0,0,1.986021281363626,21.843379627378496,-200.137377493288)"/></g></svg>